<svg id="visual" viewBox="0 0 900 600" width="900" height="600" xmlns="http://www.w3.org/2000/svg" xmlns:xlink="http://www.w3.org/1999/xlink" version="1.1"><path d="M0 223L82 223L82 169L164 169L164 199L245 199L245 193L327 193L327 133L409 133L409 121L491 121L491 307L573 307L573 205L655 205L655 241L736 241L736 157L818 157L818 187L900 187L900 145L900 0L900 0L818 0L818 0L736 0L736 0L655 0L655 0L573 0L573 0L491 0L491 0L409 0L409 0L327 0L327 0L245 0L245 0L164 0L164 0L82 0L82 0L0 0Z" fill="#fa7268"></path><path d="M0 295L82 295L82 301L164 301L164 313L245 313L245 307L327 307L327 259L409 259L409 235L491 235L491 361L573 361L573 283L655 283L655 343L736 343L736 223L818 223L818 247L900 247L900 235L900 143L900 185L818 185L818 155L736 155L736 239L655 239L655 203L573 203L573 305L491 305L491 119L409 119L409 131L327 131L327 191L245 191L245 197L164 197L164 167L82 167L82 221L0 221Z" fill="#ea5e66"></path><path d="M0 343L82 343L82 343L164 343L164 385L245 385L245 349L327 349L327 337L409 337L409 283L491 283L491 421L573 421L573 331L655 331L655 421L736 421L736 259L818 259L818 289L900 289L900 337L900 233L900 245L818 245L818 221L736 221L736 341L655 341L655 281L573 281L573 359L491 359L491 233L409 233L409 257L327 257L327 305L245 305L245 311L164 311L164 299L82 299L82 293L0 293Z" fill="#d84a64"></path><path d="M0 433L82 433L82 433L164 433L164 487L245 487L245 445L327 445L327 391L409 391L409 409L491 409L491 487L573 487L573 385L655 385L655 499L736 499L736 373L818 373L818 367L900 367L900 427L900 335L900 287L818 287L818 257L736 257L736 419L655 419L655 329L573 329L573 419L491 419L491 281L409 281L409 335L327 335L327 347L245 347L245 383L164 383L164 341L82 341L82 341L0 341Z" fill="#c53762"></path><path d="M0 601L82 601L82 601L164 601L164 601L245 601L245 601L327 601L327 601L409 601L409 601L491 601L491 601L573 601L573 601L655 601L655 601L736 601L736 601L818 601L818 601L900 601L900 601L900 425L900 365L818 365L818 371L736 371L736 497L655 497L655 383L573 383L573 485L491 485L491 407L409 407L409 389L327 389L327 443L245 443L245 485L164 485L164 431L82 431L82 431L0 431Z" fill="#b0235f"></path></svg>